<?xml version="1.0" standalone="no"?>
<!DOCTYPE svg PUBLIC "-//W3C//DTD SVG 20010904//EN"
 "http://www.w3.org/TR/2001/REC-SVG-20010904/DTD/svg10.dtd">
<svg version="1.0" xmlns="http://www.w3.org/2000/svg"
 width="1024.000000pt" height="1024.000000pt" viewBox="0 0 1024.000000 1024.000000"
 preserveAspectRatio="xMidYMid meet">

<g transform="translate(0.000000,1024.000000) scale(0.100000,-0.100000)"
fill="#000000" stroke="none">
<path d="M5368 7295 l-3 -160 -158 -5 -158 -5 -2 -500 -2 -500 -167 -3 -168
-2 0 -170 0 -170 -27 -6 c-14 -4 -91 -4 -169 0 l-144 6 -2 -162 -3 -163 -162
-3 -163 -2 -2 -168 -3 -167 -167 -3 -168 -2 -2 -168 -3 -167 -177 -3 -178 -2
0 -160 0 -160 -165 0 -165 0 0 -170 0 -170 -167 -2 -168 -3 -3 -337 -2 -338
-165 0 -165 0 0 -175 0 -175 658 0 c362 0 661 2 663 4 2 2 3 81 1 175 l-3 171
-322 2 -322 3 -3 154 c-2 104 1 158 9 167 9 11 46 14 160 14 l149 0 0 164 c0
136 3 165 15 170 8 3 466 4 1017 3 l1002 -2 2 -154 c1 -85 0 -160 -3 -168 -4
-11 -96 -13 -499 -13 l-494 0 0 -170 0 -170 170 0 170 0 0 -175 0 -175 170 0
171 0 -2 -157 -1 -158 166 -3 165 -2 3 157 3 158 162 3 163 2 2 343 3 342 165
3 165 2 -2 168 -2 167 -330 3 -331 2 0 170 0 170 161 2 161 3 -1 146 c-1 80 1
153 5 162 5 15 25 17 176 17 l169 0 -2 143 c-2 78 -1 305 2 504 l4 363 -167 0
-168 0 -2 -337 -3 -338 -172 -3 -173 -2 -2 -163 -3 -162 -165 -5 -165 -5 -3
-163 -2 -162 -508 2 -507 3 -3 140 c-1 77 0 150 3 163 5 22 7 22 175 22 l170
0 0 163 c0 113 4 167 12 175 8 8 60 12 170 12 l158 0 0 155 0 155 174 0 c175
0 201 5 177 34 -8 9 -11 64 -9 162 l3 149 163 1 c90 1 166 4 169 8 3 3 5 226
4 496 l-2 490 160 0 c147 0 182 6 151 25 -11 7 -14 272 -4 299 5 14 62 16 530
16 l524 0 0 -1170 0 -1170 168 0 167 0 -3 656 c-1 376 2 662 7 671 8 14 31 16
177 14 l169 -2 0 168 0 168 168 3 167 2 0 160 0 160 -337 2 -338 3 1 173 1
172 -163 0 -164 0 0 160 0 160 -695 2 -695 3 -2 -160z m-11 -3869 c5 -4 11
-320 6 -332 -4 -11 -33 -14 -143 -14 -76 0 -145 3 -154 6 -14 5 -16 30 -16
175 l0 168 128 3 c106 3 170 0 179 -6z"/>
<path d="M6060 6610 l0 -170 165 0 165 0 0 170 0 170 -165 0 -165 0 0 -170z"/>
<path d="M6400 4605 l0 -165 -167 -2 -168 -3 -2 -165 -2 -165 162 3 c89 1 168
2 175 2 9 0 12 40 12 160 l0 160 163 2 162 3 3 168 2 167 -170 0 -170 0 0
-165z"/>
<path d="M3700 3595 l0 -160 168 0 167 0 3 157 3 157 -171 3 -170 3 0 -160z"/>
<path d="M5737 2923 l2 -158 330 -3 331 -2 0 144 c0 79 3 151 6 160 6 14 -28
16 -332 16 l-339 0 2 -157z"/>
</g>
</svg>
